<svg width="54" height="52" viewBox="0 0 54 52" fill="none" xmlns="http://www.w3.org/2000/svg">
<path d="M0.864673 26.8291C-0.288224 25.6761 -0.288224 23.8041 0.864673 22.6511L9.53393 13.9819C10.6869 12.829 12.5589 12.829 13.7119 13.9819L37.3173 37.5873C38.4702 38.7402 38.4702 40.6123 37.3173 41.7652L28.648 50.4345C27.4951 51.5874 25.623 51.5874 24.4701 50.4345L0.864673 26.8291ZM31.4412 26.0905C30.2883 24.9376 30.2883 23.0655 31.4412 21.9125L40.1105 13.2433C41.2634 12.0904 43.1355 12.0904 44.2884 13.2433L52.9576 21.9125C54.1106 23.0655 54.1106 24.9376 52.9576 26.0905L44.2884 34.7597C43.1355 35.9127 41.2634 35.9127 40.1105 34.7597L31.4412 26.0905ZM20.8568 2.65894C24.4021 -0.886313 30.1588 -0.886313 33.704 2.65894C37.2493 6.20419 37.2493 11.9608 33.704 15.5061C30.1588 19.0514 24.4021 19.0514 20.8568 15.5061C17.3116 11.9608 17.3116 6.20419 20.8568 2.65894Z" fill="#5E62FF"/>
</svg>
