<svg width="70" height="71" viewBox="0 0 70 71" fill="none" xmlns="http://www.w3.org/2000/svg">
<rect x="0.75" y="1.25" width="68.5" height="68.5" rx="34.25" stroke="#B7A7FE" stroke-width="1.5"/>
<path opacity="0.5" d="M17.0811 15.584C16.7055 15.452 16.2929 15.4745 15.9339 15.6466C15.575 15.8188 15.2991 16.1265 15.1671 16.502C15.035 16.8776 15.0575 17.2902 15.2296 17.6492C15.4018 18.0081 15.7095 18.284 16.0851 18.416L16.6091 18.598C17.9431 19.068 18.8211 19.378 19.4671 19.696C20.0731 19.994 20.3411 20.236 20.5171 20.492C20.6971 20.756 20.8371 21.12 20.9171 21.846C20.9971 22.606 20.9991 23.596 20.9991 25.076V30.28C20.9991 36.164 21.1271 38.104 22.8591 39.932C24.5911 41.76 27.3791 41.76 32.9591 41.76H43.5651C46.6851 41.76 48.2471 41.76 49.3511 40.86C50.4551 39.96 50.7711 38.432 51.3991 35.376L52.3991 30.526C53.0931 27.046 53.4391 25.308 52.5531 24.154C51.6651 23 48.631 23 45.261 23H23.9851C23.9759 22.507 23.9466 22.0146 23.8971 21.524C23.7911 20.53 23.5571 19.624 22.9931 18.8C22.4251 17.968 21.6691 17.436 20.7891 17.002C19.9651 16.598 18.9171 16.23 17.6831 15.796L17.0811 15.584Z" fill="#4046A7"/>
<path d="M26 47C26.7956 47 27.5587 47.3161 28.1213 47.8787C28.6839 48.4413 29 49.2043 29 50C29 50.7956 28.6839 51.5587 28.1213 52.1213C27.5587 52.6839 26.7956 53 26 53C25.2044 53 24.4413 52.6839 23.8787 52.1213C23.3161 51.5587 23 50.7956 23 50C23 49.2043 23.3161 48.4413 23.8787 47.8787C24.4413 47.3161 25.2044 47 26 47ZM44 47C44.7956 47 45.5587 47.3161 46.1213 47.8787C46.6839 48.4413 47 49.2043 47 50C47 50.7956 46.6839 51.5587 46.1213 52.1213C45.5587 52.6839 44.7956 53 44 53C43.2044 53 42.4413 52.6839 41.8787 52.1213C41.3161 51.5587 41 50.7956 41 50C41 49.2043 41.3161 48.4413 41.8787 47.8787C42.4413 47.3161 43.2044 47 44 47ZM29.748 27.52C29.9424 27.487 30.1413 27.4927 30.3335 27.5367C30.5257 27.5807 30.7073 27.6621 30.868 27.7764C31.0286 27.8906 31.1652 28.0354 31.2699 28.2025C31.3746 28.3695 31.4453 28.5556 31.478 28.75L32.534 34.986C32.6003 35.3785 32.508 35.7813 32.2773 36.1057C32.0466 36.4302 31.6965 36.6497 31.304 36.716C30.9115 36.7823 30.5087 36.69 30.1843 36.4593C29.8598 36.2286 29.6403 35.8785 29.574 35.486L28.52 29.25C28.454 28.858 28.5462 28.4559 28.7765 28.1319C29.0067 27.8079 29.3561 27.5866 29.748 27.52ZM40.576 28.75C40.6079 28.555 40.6781 28.3682 40.7825 28.2003C40.8868 28.0325 41.0233 27.887 41.1841 27.772C41.3449 27.6571 41.5268 27.5751 41.7194 27.5307C41.912 27.4864 42.1114 27.4805 42.3063 27.5134C42.5011 27.5463 42.6876 27.6175 42.8549 27.7227C43.0222 27.8279 43.167 27.9651 43.2811 28.1265C43.3952 28.2879 43.4763 28.4702 43.5197 28.663C43.5631 28.8558 43.5679 29.0553 43.534 29.25L42.478 35.486C42.4452 35.6804 42.3744 35.8663 42.2697 36.0333C42.165 36.2003 42.0284 36.3451 41.8677 36.4593C41.7071 36.5735 41.5255 36.655 41.3334 36.699C41.1413 36.7431 40.9424 36.7488 40.748 36.716C40.5536 36.6832 40.3677 36.6124 40.2007 36.5077C40.0337 36.403 39.8889 36.2664 39.7747 36.1057C39.6605 35.9451 39.579 35.7635 39.535 35.5714C39.4909 35.3793 39.4852 35.1804 39.518 34.986L40.576 28.75Z" fill="#4046A7"/>
</svg>
