<svg width="71" height="71" viewBox="0 0 71 71" fill="none" xmlns="http://www.w3.org/2000/svg">
<rect x="1.0835" y="1.25" width="68.5" height="68.5" rx="34.25" stroke="#B7A7FE" stroke-width="1.5"/>
<path opacity="0.5" d="M52.7002 28.426C53.4305 27.6956 54.0098 26.8285 54.405 25.8742C54.8001 24.92 55.0035 23.8972 55.0034 22.8643C55.0033 21.8315 54.7998 20.8087 54.4044 19.8545C54.0091 18.9003 53.4297 18.0333 52.6992 17.303C51.9688 16.5727 51.1017 15.9935 50.1475 15.5983C49.1932 15.2031 48.1704 14.9998 47.1375 14.9999C45.0516 15.0001 43.0511 15.8289 41.5762 17.304L39.8022 19.078L39.8782 19.3C40.7528 21.8018 42.1841 24.0722 44.0642 25.94C45.9875 27.8754 48.3368 29.3342 50.9242 30.2L52.7002 28.426Z" fill="#4046A7"/>
<path d="M39.8807 19L39.8027 19.076L39.8787 19.3C40.7533 21.8017 42.1846 24.0722 44.0647 25.94C45.988 27.8754 48.3372 29.3342 50.9247 30.2L33.8047 47.32C32.6487 48.474 32.0707 49.052 31.4347 49.548C30.6837 50.1325 29.8716 50.6341 29.0127 51.044C28.2847 51.392 27.5107 51.65 25.9607 52.166L17.7947 54.888C17.421 55.0131 17.0198 55.0317 16.6362 54.9415C16.2526 54.8513 15.9017 54.6559 15.623 54.3774C15.3442 54.0988 15.1486 53.7481 15.0581 53.3645C14.9676 52.981 14.9858 52.5798 15.1107 52.206L17.8347 44.038C18.3507 42.49 18.6087 41.716 18.9547 40.988C19.3667 40.1267 19.866 39.3187 20.4527 38.564C20.9487 37.928 21.5267 37.352 22.6807 36.198L39.8807 19Z" fill="#4046A7"/>
<path opacity="0.5" d="M21.9855 19.09L19.0915 21.984C16.3655 24.71 15.0015 26.074 15.0015 27.768C15.0015 29.462 16.3655 30.828 19.0915 33.554L22.2075 36.67L22.6795 36.198L36.6715 22.206L33.5555 19.09C30.8275 16.364 29.4615 15 27.7695 15C26.0775 15 24.7115 16.364 21.9855 19.09ZM47.7935 33.328L33.8015 47.32L33.3295 47.792L36.4495 50.91C39.1735 53.636 40.5355 55 42.2315 55C43.9275 55 45.2895 53.636 48.0155 50.91L50.9095 48.016C53.6375 45.29 55.0015 43.926 55.0015 42.232C55.0015 40.536 53.6375 39.172 50.9115 36.446L47.7935 33.328Z" fill="#4046A7"/>
<path d="M51.2184 36.754L48.8784 39.094C48.6137 39.3786 48.4699 39.7548 48.4771 40.1434C48.4843 40.532 48.6421 40.9026 48.9172 41.1772C49.1922 41.4517 49.5632 41.6088 49.9518 41.6153C50.3404 41.6218 50.7163 41.4772 51.0004 41.212L53.3004 38.912C52.6259 38.1735 51.9316 37.4552 51.2184 36.754ZM30.5324 16.226L27.8784 18.878C27.7391 19.0173 27.6286 19.1827 27.5532 19.3647C27.4778 19.5468 27.439 19.7419 27.439 19.939C27.439 20.136 27.4778 20.3311 27.5532 20.5132C27.6286 20.6952 27.7391 20.8606 27.8784 21C28.0178 21.1393 28.1832 21.2498 28.3652 21.3252C28.5473 21.4006 28.7424 21.4394 28.9394 21.4394C29.1365 21.4394 29.3316 21.4006 29.5137 21.3252C29.6957 21.2498 29.8611 21.1393 30.0004 21L32.7304 18.272C32.0317 17.5543 31.2974 16.8721 30.5304 16.228" fill="#4046A7"/>
</svg>
